{"asset":{"version":"2.0","generator":"Blockbench 5.0.7 glTF exporter"},"scenes":[{"nodes":[0,4,7,12,13,14,15,16,21],"name":"blockbench_export"}],"scene":0,"nodes":[{"name":"Floor","mesh":0},{"name":"Bed","mesh":1},{"translation":[0.75,0.625,-0.75],"name":"Pillow","mesh":2},{"rotation":[0,-0.08715574274765817,0,0.9961946980917455],"translation":[1.5,0.625,-0.625],"name":"Pillow","mesh":3},{"rotation":[0,-0.7071067811865475,0,0.7071067811865476],"translation":[2,0,-3],"name":"Bed","children":[1,2,3]},{"rotation":[0,-0.7071067811865475,0,0.7071067811865476],"translation":[-0.125,0,3.125],"name":"Wall_Bath_S","mesh":4},{"name":"Wall_Bath_E","mesh":5},{"translation":[-1.25,1.5,-3],"name":"Wall_int","children":[5,6]},{"rotation":[0,0,0.7071067811865475,0.7071067811865476],"translation":[6,0,0],"name":"Wall_E","mesh":6},{"rotation":[-0.4999999999999995,-0.5000000000000004,0.49999999999999944,0.5000000000000006],"translation":[3,0,1.375],"name":"Wall_S","mesh":7},{"rotation":[-0.7071067811865476,-0.7071067811865475,-4.329780281177466e-17,4.329780281177467e-17],"name":"Wall_W","mesh":8},{"rotation":[0.5,0.5,0.4999999999999999,0.5000000000000001],"translation":[3,0,-3],"name":"Wall_N","mesh":9},{"translation":[-3,0,0],"name":"Walls_ext","children":[8,9,10,11]},{"translation":[-2.875,1.5,0.375],"name":"Door_Hallway","mesh":10},{"translation":[-1.25,1.5,-1],"name":"Door_Bathroom","mesh":11},{"translation":[-1.125,1.5,-2],"name":"Television","mesh":12},{"translation":[-1,0,-2.125],"name":"Shelf_TV","mesh":13},{"rotation":[0.706938496019299,0.01542545342025945,0.015425452857226678,0.7069385218227257],"translation":[2.75,0.625,0],"name":"Picture_03","mesh":14},{"rotation":[0.702903965883291,-0.07698050468393616,-0.07698050622488653,0.7029039893936498],"translation":[1.125,-0.125,0],"name":"Picture_01","mesh":15},{"rotation":[0.5213337964020073,0.47771441033539275,0.47771442388113095,0.5213338125451845],"translation":[-1.75,-0.375,3.125],"name":"Picture_04","mesh":16},{"rotation":[0.7055927995119242,0.046246995932466076,0.046246996446442326,0.7055928230671218],"name":"Picture_02","mesh":17},{"translation":[-0.625,1.375,-2.9875],"name":"Childs_Pictures","children":[17,18,19,20]}],"bufferViews":[{"buffer":0,"byteOffset":0,"byteLength":48,"target":34962,"byteStride":12},{"buffer":0,"byteOffset":48,"byteLength":48,"target":34962,"byteStride":12},{"buffer":0,"byteOffset":96,"byteLength":32,"target":34962,"byteStride":8},{"buffer":0,"byteOffset":128,"byteLength":12,"target":34963},{"buffer":0,"byteOffset":140,"byteLength":288,"target":34962,"byteStride":12},{"buffer":0,"byteOffset":428,"byteLength":288,"target":34962,"byteStride":12},{"buffer":0,"byteOffset":716,"byteLength":192,"target":34962,"byteStride":8},{"buffer":0,"byteOffset":908,"byteLength":72,"target":34963},{"buffer":0,"byteOffset":980,"byteLength":288,"target":34962,"byteStride":12},{"buffer":0,"byteOffset":1268,"byteLength":288,"target":34962,"byteStride":12},{"buffer":0,"byteOffset":1556,"byteLength":192,"target":34962,"byteStride":8},{"buffer":0,"byteOffset":1748,"byteLength":72,"target":34963},{"buffer":0,"byteOffset":1820,"byteLength":288,"target":34962,"byteStride":12},{"buffer":0,"byteOffset":2108,"byteLength":288,"target":34962,"byteStride":12},{"buffer":0,"byteOffset":2396,"byteLength":192,"target":34962,"byteStride":8},{"buffer":0,"byteOffset":2588,"byteLength":72,"target":34963},{"buffer":0,"byteOffset":2660,"byteLength":288,"target":34962,"byteStride":12},{"buffer":0,"byteOffset":2948,"byteLength":288,"target":34962,"byteStride":12},{"buffer":0,"byteOffset":3236,"byteLength":192,"target":34962,"byteStride":8},{"buffer":0,"byteOffset":3428,"byteLength":72,"target":34963},{"buffer":0,"byteOffset":3500,"byteLength":672,"target":34962,"byteStride":12},{"buffer":0,"byteOffset":4172,"byteLength":672,"target":34962,"byteStride":12},{"buffer":0,"byteOffset":4844,"byteLength":448,"target":34962,"byteStride":8},{"buffer":0,"byteOffset":5292,"byteLength":168,"target":34963},{"buffer":0,"byteOffset":5460,"byteLength":48,"target":34962,"byteStride":12},{"buffer":0,"byteOffset":5508,"byteLength":48,"target":34962,"byteStride":12},{"buffer":0,"byteOffset":5556,"byteLength":32,"target":34962,"byteStride":8},{"buffer":0,"byteOffset":5588,"byteLength":12,"target":34963},{"buffer":0,"byteOffset":5600,"byteLength":48,"target":34962,"byteStride":12},{"buffer":0,"byteOffset":5648,"byteLength":48,"target":34962,"byteStride":12},{"buffer":0,"byteOffset":5696,"byteLength":32,"target":34962,"byteStride":8},{"buffer":0,"byteOffset":5728,"byteLength":12,"target":34963},{"buffer":0,"byteOffset":5740,"byteLength":48,"target":34962,"byteStride":12},{"buffer":0,"byteOffset":5788,"byteLength":48,"target":34962,"byteStride":12},{"buffer":0,"byteOffset":5836,"byteLength":32,"target":34962,"byteStride":8},{"buffer":0,"byteOffset":5868,"byteLength":12,"target":34963},{"buffer":0,"byteOffset":5880,"byteLength":48,"target":34962,"byteStride":12},{"buffer":0,"byteOffset":5928,"byteLength":48,"target":34962,"byteStride":12},{"buffer":0,"byteOffset":5976,"byteLength":32,"target":34962,"byteStride":8},{"buffer":0,"byteOffset":6008,"byteLength":12,"target":34963},{"buffer":0,"byteOffset":6020,"byteLength":288,"target":34962,"byteStride":12},{"buffer":0,"byteOffset":6308,"byteLength":288,"target":34962,"byteStride":12},{"buffer":0,"byteOffset":6596,"byteLength":192,"target":34962,"byteStride":8},{"buffer":0,"byteOffset":6788,"byteLength":72,"target":34963},{"buffer":0,"byteOffset":6860,"byteLength":288,"target":34962,"byteStride":12},{"buffer":0,"byteOffset":7148,"byteLength":288,"target":34962,"byteStride":12},{"buffer":0,"byteOffset":7436,"byteLength":192,"target":34962,"byteStride":8},{"buffer":0,"byteOffset":7628,"byteLength":72,"target":34963},{"buffer":0,"byteOffset":7700,"byteLength":288,"target":34962,"byteStride":12},{"buffer":0,"byteOffset":7988,"byteLength":288,"target":34962,"byteStride":12},{"buffer":0,"byteOffset":8276,"byteLength":192,"target":34962,"byteStride":8},{"buffer":0,"byteOffset":8468,"byteLength":72,"target":34963},{"buffer":0,"byteOffset":8540,"byteLength":288,"target":34962,"byteStride":12},{"buffer":0,"byteOffset":8828,"byteLength":288,"target":34962,"byteStride":12},{"buffer":0,"byteOffset":9116,"byteLength":192,"target":34962,"byteStride":8},{"buffer":0,"byteOffset":9308,"byteLength":72,"target":34963},{"buffer":0,"byteOffset":9380,"byteLength":48,"target":34962,"byteStride":12},{"buffer":0,"byteOffset":9428,"byteLength":48,"target":34962,"byteStride":12},{"buffer":0,"byteOffset":9476,"byteLength":32,"target":34962,"byteStride":8},{"buffer":0,"byteOffset":9508,"byteLength":12,"target":34963},{"buffer":0,"byteOffset":9520,"byteLength":48,"target":34962,"byteStride":12},{"buffer":0,"byteOffset":9568,"byteLength":48,"target":34962,"byteStride":12},{"buffer":0,"byteOffset":9616,"byteLength":32,"target":34962,"byteStride":8},{"buffer":0,"byteOffset":9648,"byteLength":12,"target":34963},{"buffer":0,"byteOffset":9660,"byteLength":48,"target":34962,"byteStride":12},{"buffer":0,"byteOffset":9708,"byteLength":48,"target":34962,"byteStride":12},{"buffer":0,"byteOffset":9756,"byteLength":32,"target":34962,"byteStride":8},{"buffer":0,"byteOffset":9788,"byteLength":12,"target":34963},{"buffer":0,"byteOffset":9800,"byteLength":48,"target":34962,"byteStride":12},{"buffer":0,"byteOffset":9848,"byteLength":48,"target":34962,"byteStride":12},{"buffer":0,"byteOffset":9896,"byteLength":32,"target":34962,"byteStride":8},{"buffer":0,"byteOffset":9928,"byteLength":12,"target":34963}],"buffers":[{"byteLength":9940,"uri":"data:application/octet-stream;base64,"}],"accessors":[{"bufferView":0,"componentType":5126,"count":4,"max":[3,0,1.375],"min":[-3,0,-3],"type":"VEC3"},{"bufferView":1,"componentType":5126,"count":4,"max":[0,1,0],"min":[0,1,0],"type":"VEC3"},{"bufferView":2,"componentType":5126,"count":4,"max":[1,0.875],"min":[0,0.1458333134651184],"type":"VEC2"},{"bufferView":3,"componentType":5123,"count":6,"max":[3],"min":[0],"type":"SCALAR"},{"bufferView":4,"componentType":5126,"count":24,"max":[1.5,0.625,1],"min":[0,0,-1],"type":"VEC3"},{"bufferView":5,"componentType":5126,"count":24,"max":[1,1,1],"min":[-1,-1,-1],"type":"VEC3"},{"bufferView":6,"componentType":5126,"count":24,"max":[0.3333333432674408,0.3333333134651184],"min":[0,0],"type":"VEC2"},{"bufferView":7,"componentType":5123,"count":36,"max":[23],"min":[0],"type":"SCALAR"},{"bufferView":8,"componentType":5126,"count":24,"max":[0.020837610587477684,0.25,0.2926265597343445],"min":[-0.7698862552642822,1.6653345369377348e-16,-0.27083760499954224],"type":"VEC3"},{"bufferView":9,"componentType":5126,"count":24,"max":[0.9961947202682495,1,0.9961947202682495],"min":[-0.9961947202682495,-1,-0.9961947202682495],"type":"VEC3"},{"bufferView":10,"componentType":5126,"count":24,"max":[0.14583392441272736,0.12500059604644775],"min":[0,0],"type":"VEC2"},{"bufferView":11,"componentType":5123,"count":36,"max":[23],"min":[0],"type":"SCALAR"},{"bufferView":12,"componentType":5126,"count":24,"max":[0.020837610587477684,0.25,0.2926265597343445],"min":[-0.7698862552642822,1.6653345369377348e-16,-0.27083760499954224],"type":"VEC3"},{"bufferView":13,"componentType":5126,"count":24,"max":[0.9961947202682495,1,0.9961947202682495],"min":[-0.9961947202682495,-1,-0.9961947202682495],"type":"VEC3"},{"bufferView":14,"componentType":5126,"count":24,"max":[0.14583392441272736,0.12500059604644775],"min":[0,0],"type":"VEC2"},{"bufferView":15,"componentType":5123,"count":36,"max":[23],"min":[0],"type":"SCALAR"},{"bufferView":16,"componentType":5126,"count":24,"max":[3.3306690738754696e-16,1.5,1.625],"min":[-0.125,-1.5,0],"type":"VEC3"},{"bufferView":17,"componentType":5126,"count":24,"max":[1,1,1],"min":[-1,-1,-1],"type":"VEC3"},{"bufferView":18,"componentType":5126,"count":24,"max":[0.3958333432674408,0.5],"min":[0.0416666679084301,0],"type":"VEC2"},{"bufferView":19,"componentType":5123,"count":36,"max":[23],"min":[0],"type":"SCALAR"},{"bufferView":20,"componentType":5126,"count":56,"max":[0,1.5,3.125],"min":[-0.125,-1.5,0],"type":"VEC3"},{"bufferView":21,"componentType":5126,"count":56,"max":[1,1,1],"min":[-1,-1,-1],"type":"VEC3"},{"bufferView":22,"componentType":5126,"count":56,"max":[0.5208333134651184,0.5208333730697632],"min":[0,0],"type":"VEC2"},{"bufferView":23,"componentType":5123,"count":84,"max":[55],"min":[0],"type":"SCALAR"},{"bufferView":24,"componentType":5126,"count":4,"max":[3,6.661338147750939e-16,1.375],"min":[0,0,-3],"type":"VEC3"},{"bufferView":25,"componentType":5126,"count":4,"max":[2.220446049250313e-16,1,0],"min":[2.220446049250313e-16,1,0],"type":"VEC3"},{"bufferView":26,"componentType":5126,"count":4,"max":[0.875,0.75],"min":[0.1458333283662796,0.25],"type":"VEC2"},{"bufferView":27,"componentType":5123,"count":6,"max":[3],"min":[0],"type":"SCALAR"},{"bufferView":28,"componentType":5126,"count":4,"max":[3,6.661338147750939e-16,3],"min":[0,0,-3],"type":"VEC3"},{"bufferView":29,"componentType":5126,"count":4,"max":[2.220446049250313e-16,1,0],"min":[2.220446049250313e-16,1,0],"type":"VEC3"},{"bufferView":30,"componentType":5126,"count":4,"max":[1,0.75],"min":[0,0.25],"type":"VEC2"},{"bufferView":31,"componentType":5123,"count":6,"max":[3],"min":[0],"type":"SCALAR"},{"bufferView":32,"componentType":5126,"count":4,"max":[3,6.661338147750939e-16,3],"min":[-1.9900511023636733e-16,0,-1.375],"type":"VEC3"},{"bufferView":33,"componentType":5126,"count":4,"max":[2.220446049250313e-16,1,9.15642141023405e-33],"min":[2.220446049250313e-16,1,9.15642141023405e-33],"type":"VEC3"},{"bufferView":34,"componentType":5126,"count":4,"max":[0.875,0.75],"min":[0.1458333283662796,0.25],"type":"VEC2"},{"bufferView":35,"componentType":5123,"count":6,"max":[3],"min":[0],"type":"SCALAR"},{"bufferView":36,"componentType":5126,"count":4,"max":[3,6.661338147750939e-16,3],"min":[0,0,-3],"type":"VEC3"},{"bufferView":37,"componentType":5126,"count":4,"max":[2.220446049250313e-16,1,0],"min":[2.220446049250313e-16,1,0],"type":"VEC3"},{"bufferView":38,"componentType":5126,"count":4,"max":[1,0.75],"min":[0,0.25],"type":"VEC2"},{"bufferView":39,"componentType":5123,"count":6,"max":[3],"min":[0],"type":"SCALAR"},{"bufferView":40,"componentType":5126,"count":24,"max":[0,1,0.875],"min":[-0.125,-1.5,-0.125],"type":"VEC3"},{"bufferView":41,"componentType":5126,"count":24,"max":[1,1,1],"min":[-1,-1,-1],"type":"VEC3"},{"bufferView":42,"componentType":5126,"count":24,"max":[0.1666666716337204,0.4583333134651184],"min":[0,0],"type":"VEC2"},{"bufferView":43,"componentType":5123,"count":36,"max":[23],"min":[0],"type":"SCALAR"},{"bufferView":44,"componentType":5126,"count":24,"max":[0,1,0.875],"min":[-0.125,-1.5,-0.125],"type":"VEC3"},{"bufferView":45,"componentType":5126,"count":24,"max":[1,1,1],"min":[-1,-1,-1],"type":"VEC3"},{"bufferView":46,"componentType":5126,"count":24,"max":[0.1666666716337204,0.4583333134651184],"min":[0,0],"type":"VEC2"},{"bufferView":47,"componentType":5123,"count":36,"max":[23],"min":[0],"type":"SCALAR"},{"bufferView":48,"componentType":5126,"count":24,"max":[0,0.5,0.625],"min":[-0.125,-0.5,-0.75],"type":"VEC3"},{"bufferView":49,"componentType":5126,"count":24,"max":[1,1,1],"min":[-1,-1,-1],"type":"VEC3"},{"bufferView":50,"componentType":5126,"count":24,"max":[0.2291666716337204,0.3333333134651184],"min":[0,0],"type":"VEC2"},{"bufferView":51,"componentType":5123,"count":36,"max":[23],"min":[0],"type":"SCALAR"},{"bufferView":52,"componentType":5126,"count":24,"max":[0.25,0.5,0.875],"min":[-0.25,0,-0.875],"type":"VEC3"},{"bufferView":53,"componentType":5126,"count":24,"max":[1,1,1],"min":[-1,-1,-1],"type":"VEC3"},{"bufferView":54,"componentType":5126,"count":24,"max":[0.2916666567325592,0.2916666865348816],"min":[0,0],"type":"VEC2"},{"bufferView":55,"componentType":5123,"count":36,"max":[23],"min":[0],"type":"SCALAR"},{"bufferView":56,"componentType":5126,"count":4,"max":[0.25,0,0.375],"min":[-0.25,0,-0.375],"type":"VEC3"},{"bufferView":57,"componentType":5126,"count":4,"max":[0,1,0],"min":[0,1,0],"type":"VEC3"},{"bufferView":58,"componentType":5126,"count":4,"max":[0.0833333358168602,0.125],"min":[0,0],"type":"VEC2"},{"bufferView":59,"componentType":5123,"count":6,"max":[3],"min":[0],"type":"SCALAR"},{"bufferView":60,"componentType":5126,"count":4,"max":[0.25,0,0.375],"min":[-0.25,0,-0.375],"type":"VEC3"},{"bufferView":61,"componentType":5126,"count":4,"max":[0,1,0],"min":[0,1,0],"type":"VEC3"},{"bufferView":62,"componentType":5126,"count":4,"max":[0.0833333358168602,0.125],"min":[0,0],"type":"VEC2"},{"bufferView":63,"componentType":5123,"count":6,"max":[3],"min":[0],"type":"SCALAR"},{"bufferView":64,"componentType":5126,"count":4,"max":[0.25,0,0.375],"min":[-0.25,0,-0.375],"type":"VEC3"},{"bufferView":65,"componentType":5126,"count":4,"max":[0,1,0],"min":[0,1,0],"type":"VEC3"},{"bufferView":66,"componentType":5126,"count":4,"max":[0.0833333358168602,0.125],"min":[0,0],"type":"VEC2"},{"bufferView":67,"componentType":5123,"count":6,"max":[3],"min":[0],"type":"SCALAR"},{"bufferView":68,"componentType":5126,"count":4,"max":[0.25,8.500145032286355e-17,0.375],"min":[-0.25,-8.586881206085195e-17,-0.375],"type":"VEC3"},{"bufferView":69,"componentType":5126,"count":4,"max":[-8.673617379884035e-18,1,2.1626218892681202e-16],"min":[-8.673617379884035e-18,1,2.1626218892681202e-16],"type":"VEC3"},{"bufferView":70,"componentType":5126,"count":4,"max":[0.0833333358168602,0.125],"min":[0,0],"type":"VEC2"},{"bufferView":71,"componentType":5123,"count":6,"max":[3],"min":[0],"type":"SCALAR"}],"materials":[{"pbrMetallicRoughness":{"metallicFactor":0,"roughnessFactor":1},"alphaMode":"MASK","alphaCutoff":0.05,"doubleSided":true},{"pbrMetallicRoughness":{"metallicFactor":0,"roughnessFactor":1},"alphaMode":"MASK","alphaCutoff":0.05,"doubleSided":true},{"pbrMetallicRoughness":{"metallicFactor":0,"roughnessFactor":1},"alphaMode":"MASK","alphaCutoff":0.05,"doubleSided":true},{"pbrMetallicRoughness":{"metallicFactor":0,"roughnessFactor":1},"alphaMode":"MASK","alphaCutoff":0.05,"doubleSided":true},{"pbrMetallicRoughness":{"metallicFactor":0,"roughnessFactor":1},"alphaMode":"MASK","alphaCutoff":0.05,"doubleSided":true},{"pbrMetallicRoughness":{"metallicFactor":0,"roughnessFactor":1},"alphaMode":"MASK","alphaCutoff":0.05,"doubleSided":true},{"pbrMetallicRoughness":{"metallicFactor":0,"roughnessFactor":1},"alphaMode":"MASK","alphaCutoff":0.05,"doubleSided":true}],"meshes":[{"primitives":[{"mode":4,"attributes":{"POSITION":0,"NORMAL":1,"TEXCOORD_0":2},"indices":3,"material":0}]},{"primitives":[{"mode":4,"attributes":{"POSITION":4,"NORMAL":5,"TEXCOORD_0":6},"indices":7,"material":1}]},{"primitives":[{"mode":4,"attributes":{"POSITION":8,"NORMAL":9,"TEXCOORD_0":10},"indices":11,"material":1}]},{"primitives":[{"mode":4,"attributes":{"POSITION":12,"NORMAL":13,"TEXCOORD_0":14},"indices":15,"material":1}]},{"primitives":[{"mode":4,"attributes":{"POSITION":16,"NORMAL":17,"TEXCOORD_0":18},"indices":19,"material":2}]},{"primitives":[{"mode":4,"attributes":{"POSITION":20,"NORMAL":21,"TEXCOORD_0":22},"indices":23,"material":2}]},{"primitives":[{"mode":4,"attributes":{"POSITION":24,"NORMAL":25,"TEXCOORD_0":26},"indices":27,"material":3}]},{"primitives":[{"mode":4,"attributes":{"POSITION":28,"NORMAL":29,"TEXCOORD_0":30},"indices":31,"material":3}]},{"primitives":[{"mode":4,"attributes":{"POSITION":32,"NORMAL":33,"TEXCOORD_0":34},"indices":35,"material":3}]},{"primitives":[{"mode":4,"attributes":{"POSITION":36,"NORMAL":37,"TEXCOORD_0":38},"indices":39,"material":3}]},{"primitives":[{"mode":4,"attributes":{"POSITION":40,"NORMAL":41,"TEXCOORD_0":42},"indices":43,"material":4}]},{"primitives":[{"mode":4,"attributes":{"POSITION":44,"NORMAL":45,"TEXCOORD_0":46},"indices":47,"material":4}]},{"primitives":[{"mode":4,"attributes":{"POSITION":48,"NORMAL":49,"TEXCOORD_0":50},"indices":51,"material":5}]},{"primitives":[{"mode":4,"attributes":{"POSITION":52,"NORMAL":53,"TEXCOORD_0":54},"indices":55,"material":4}]},{"primitives":[{"mode":4,"attributes":{"POSITION":56,"NORMAL":57,"TEXCOORD_0":58},"indices":59,"material":6}]},{"primitives":[{"mode":4,"attributes":{"POSITION":60,"NORMAL":61,"TEXCOORD_0":62},"indices":63,"material":6}]},{"primitives":[{"mode":4,"attributes":{"POSITION":64,"NORMAL":65,"TEXCOORD_0":66},"indices":67,"material":6}]},{"primitives":[{"mode":4,"attributes":{"POSITION":68,"NORMAL":69,"TEXCOORD_0":70},"indices":71,"material":6}]}]}